
<svg version="1.1" id="Layer_1" xmlns="http://www.w3.org/2000/svg" xmlns:xlink="http://www.w3.org/1999/xlink" x="0px" y="0px"
	 viewBox="0 0 1259 157" style="enable-background:new 0 0 1259 157;" xml:space="preserve">
<style type="text/css">
	.st0{fill:none;}
	.st1{stroke:#000000;stroke-miterlimit:10;stroke-dasharray:1800;}
</style>
<g>
	<rect x="37.5" y="38.7" class="st0" width="1581.5" height="444.4"/>
	<path class="st1" d="M100.6,38.7v33.2c-0.1,0-0.2,0.1-0.3,0.3s-0.2,0.3-0.3,0.3c-0.1,0-0.3-0.2-0.4-0.6C98.8,65.7,97.9,60.7,97,57
		s-2.2-6.9-4-9.7s-4.3-4.9-7.6-6.3c-1.3-0.6-2.9-0.8-4.7-0.8c-0.3,0-1,0-2.1,0.1c-1.1,0-2.2,0.1-3.1,0.1l0.3,79h12.6v1.4H53.3v-1.4
		h12l-0.2-79c-0.5,0-1.3,0-2.3-0.1c-1,0-1.8-0.1-2.3-0.1c-1.8,0-3.2,0.2-4.2,0.7c-2.9,1.5-5.3,3.3-7.2,5.6C47.4,48.8,46,51.3,45,54
		c-0.9,2.7-1.6,5.1-1.9,7.1c-0.3,2-0.8,5.8-1.5,11.4h-0.7V38.7H100.6z"/>
	<path class="st1" d="M107.7,38.8h33.7v1.4h-11.7l-0.1,33.6h31.7V40.4l-11.8-0.1v-1.2c3.8,0,9,0,15.6,0s12.8,0,18.4-0.1v1.5h-12.3
		v78.9H184v1.4h-34.4l-0.1-1.4h11.9V75.7h-31.6v43.7h11.7v1.5h-33.4v-1.5h11.7V40.2h-11.9L107.7,38.8z"/>
	<path class="st1" d="M191.4,39h58.9v27.4h-1c-0.4-4.2-0.8-7.2-1-9c-0.3-1.8-0.8-3.9-1.6-6.2s-1.9-4.3-3.5-6c-1.5-1.7-3.5-2.9-6-3.5
		c-3.4-0.8-7.3-1.2-11.8-1.2c-0.7,0-2.1,0-4.2,0.1c-2.2,0-4.2,0.1-6.1,0.1l-1.7,0.4v34.5c1.6,0,3.6,0,5.8,0s4,0.1,5.2,0.1
		c2.2,0,3.9-1,4.9-2.9c1.1-1.9,1.8-4.2,2.3-6.8c0.4-2.6,0.9-5.1,1.3-7.6l0.6,0.1v36.9h-0.7c-0.3-2.2-0.6-4.2-0.8-6s-0.6-3.5-1.1-5.2
		s-1.2-3-2.3-4.1c-1-1.1-2.4-1.6-4.1-1.6h-11v40.8c1.2,0,2.9,0,5.3,0.1c2.4,0.1,4.1,0.1,5.4,0.1c4,0,7.5-0.4,10.5-1.3
		s5.8-2.5,8.2-4.8c1.6-1.6,2.9-3.3,3.9-5.2c1-1.9,1.7-3.8,2.1-5.6c0.5-1.8,0.8-3.9,1.1-6.3s0.6-4.6,0.9-6.7h0.7V121l-60.9,0.1v-1.6
		h11.5l1.1-1.4V40.8c-1.4-0.2-3.3-0.4-5.9-0.5c-2.6-0.1-4.6-0.1-6.1-0.1V39H191.4z"/>
	<path class="st1" d="M290.3,38.8l59.4-0.1v32.5h-1.1c-0.6-7.2-1.9-13.2-3.9-18.3s-5.5-8.8-10.6-11.5c-2.6-1.2-9.3-1.8-19.8-1.8
		h-2.6v37.1h7.4c3.7,0,6.6-1.9,8.6-5.7c2-3.8,3.3-7.9,4.1-12.3h0.6v36.4h-0.8c-0.1-0.4-0.3-1.7-0.7-3.8c-0.4-2.1-1-4.1-1.8-6.1
		s-2.1-3.7-3.7-5.2c-1.7-1.5-3.7-2.2-6.2-2.2h-7.6V114c0,2.2,1,3.6,3.1,4.4c2.1,0.7,4.9,1.1,8.4,1.1v1.2H289v-1.2
		c2.1,0,4.8-0.4,7.9-1.1c3.2-0.7,4.7-2.2,4.7-4.6v-74h-11.4v-1H290.3z"/>
	<path class="st1" d="M384.6,39.7c3.9,0,7.5,1.2,10.7,3.5c3.3,2.4,6.1,5.3,8.4,8.7c2.5,3.8,4.5,8.3,5.8,13.6s2,10.8,2,16.5
		c0,10.4-2,18.8-5.9,25.4c-1.9,3.1-4.7,6.2-8.6,9.1s-8.4,4.3-13.4,4.3s-8.9-0.8-11.5-2.5s-5.4-4.7-8.5-9c-1.9-2.9-3.5-5.9-4.8-9.2
		c-1.3-3.2-2.3-6.6-2.9-10.2s-1-7.1-1-10.7c0-10.4,2.5-19.3,7.4-26.8C367.8,44.2,375.2,39.9,384.6,39.7z M384.7,41.3
		c-4,0.1-7.2,1-9.5,2.7c-2.3,1.8-3.8,3.5-4.5,5.3c-1.3,3.7-2.3,8.7-3.1,15c-0.8,6.3-1.2,12.6-1.2,19.1c0,9.8,0.8,17.6,2.4,23.6
		c0.7,2.6,1.6,4.6,2.5,5.7c0.9,1.2,2.2,2.4,3.8,3.7c2.4,1.8,5.1,2.7,7.9,2.7c3,0,5.9-1,8.8-3c1.5-1.1,2.9-2.7,4.2-4.6
		c1.3-2,2-4,2.2-5.9c0.5-6.1,0.9-11.3,1.2-15.7c0.3-4.4,0.4-8.6,0.4-12.8c0-11.1-1.1-20.5-3.3-28c-0.5-1.9-1.9-3.7-4.3-5.4
		C389.9,42.1,387.4,41.3,384.7,41.3z"/>
	<path class="st1" d="M482.1,38.7v1.4c-8.8,0-13.2,2.8-13.2,8.3v55.9c0,5.6-2.8,10.2-8.5,13.8c-3,1.9-7.3,2.8-12.8,2.8
		c-3.6,0-7-0.5-10.4-1.4s-6.2-2.3-8.5-4c-5-3.9-7.6-8.5-7.6-14V40.2h-11.7l0.2-1.4h33.7v1.4H431v67.6c0,2.5,0.8,4.6,2.5,6.5
		c1.7,1.8,3.8,3.2,6.4,4.2c2.4,0.8,5,1.2,7.6,1.2c3.9,0,7.5-0.8,10.9-2.3c3.4-1.6,5.7-3.7,6.9-6.5c0.9-2.4,1.4-5.7,1.4-10V49.1
		c0-6.1-3.5-9.2-10.4-9.2c-0.8,0-1.5,0-2,0.1s-1,0.1-1.2,0.2v-1.5C453.1,38.7,482.1,38.7,482.1,38.7z"/>
	<path class="st1" d="M486.4,38.8h45.9c2.9,0,5.4,0.9,7.5,2.7s3.8,4.2,4.8,7.1c1.5,3.4,2.2,7.1,2.2,11c0,3.2-0.6,5.9-1.7,8.1
		c-1,2.3-2.4,4.1-4.2,5.6s-3.7,2.6-5.5,3.3c-1.9,0.7-4.4,1.6-7.6,2.5c3.3,1,5.6,1.8,7,2.3s2.7,1.4,4.2,2.6s2.6,2.8,3.3,4.8
		c1.1,2.9,1.9,6.9,2.4,11.9s1.1,8.8,1.7,11.3c0.6,2.5,2.2,4.8,4.6,7c0.5,0.5,2,0.7,4.5,0.7c1,0,1.9,0,2.7-0.1
		c0.9-0.1,1.5-0.1,1.8-0.2v1.4h-5.2c-4.3,0-8-0.5-10.9-1.5s-5.1-3.1-6.4-6.3c-1.3-2.8-2.3-7.5-3-14c-0.7-6.6-1.4-11.3-2.3-14.2
		c-0.9-2.9-2.8-4.3-5.8-4.3h-17.3v38.7h10v1.5l-32.7-0.1v-1.4h12v-79h-12L486.4,38.8L486.4,38.8z M535.7,48.6
		c-1.2-3.2-3.5-5.4-6.7-6.4c-3.2-1.1-7.3-1.6-12.2-1.6c-0.9,0-2.3,0-4,0.1c-1.8,0-3,0.1-3.8,0.1v37.6c0.3,0,0.9,0,1.8,0.1
		s1.9,0,3.1,0c4.5,0,8.7-0.3,12.6-0.9c3.9-0.6,6.4-1.7,7.5-3.2c2.5-3.7,3.7-8.5,3.7-14.4C537.7,56,537.1,52.2,535.7,48.6z"/>
	<path class="st1" d="M623.6,38.6c1.3-0.2,2.3-0.2,3-0.2c5.4,0,10.8,3.1,16.1,9.4l7.2-8.4l0.9,0.4v29h-0.9c-3.9-13.7-10-23-18.3-28
		c-1.3-0.7-3-1.1-5.3-1.1c-3.3,0-5.7,0.8-7.3,2.4c-4,4.2-6.8,8.9-8.3,14.1c-1.6,5.2-2.3,11.2-2.3,17.9c0,2.9,0.2,7.1,0.6,12.4
		c0.4,5.4,0.6,8.6,0.7,9.7c0.4,6.4,1.5,11.6,3.2,15.7s4.8,7.1,9.2,9.1c1.7,0.6,3.4,0.9,5,0.9c2.7,0,5.1-0.6,7.1-1.9
		c3-2.3,5.6-5.2,7.6-8.4c2-3.3,3.6-6.7,4.8-10.2s2.4-7.6,3.5-12.4h0.8v33.5c-1-0.4-1.8-1-2.4-1.7c-0.6-0.7-1.3-1.8-2.2-3.3
		s-1.8-2.5-2.6-3.3l-0.7-0.5c-5,6.3-10.1,9.4-15.3,9.4c-4.8,0-9.2-1.4-13.1-4.3c-4-2.9-7.1-6.5-9.4-11c-4.8-9.4-7.2-19-7.2-28.8
		c0-8.8,2-16.6,6-23.6c1.8-3.2,3.5-5.8,5.2-8c1.6-2.1,3.7-4,6.1-5.6C617.4,40.3,620.3,39.2,623.6,38.6z"/>
	<path class="st1" d="M685,39.7c3.9,0,7.5,1.2,10.7,3.5s6.1,5.3,8.4,8.7c2.5,3.8,4.5,8.3,5.8,13.6s2,10.8,2,16.5
		c0,10.4-2,18.8-5.9,25.4c-1.9,3.1-4.7,6.2-8.6,9.1c-3.9,2.9-8.4,4.3-13.4,4.3s-8.9-0.8-11.5-2.5s-5.4-4.7-8.5-9
		c-1.9-2.9-3.5-5.9-4.8-9.2s-2.3-6.6-2.9-10.2s-1-7.1-1-10.7c0-10.4,2.5-19.3,7.4-26.8C668.2,44.2,675.6,39.9,685,39.7z M685.1,41.3
		c-4,0.1-7.2,1-9.5,2.7c-2.3,1.8-3.8,3.5-4.5,5.3c-1.3,3.7-2.3,8.7-3.1,15s-1.2,12.6-1.2,19.1c0,9.8,0.8,17.6,2.4,23.6
		c0.7,2.6,1.6,4.6,2.5,5.7c0.9,1.2,2.2,2.4,3.8,3.7c2.4,1.8,5.1,2.7,7.9,2.7c3,0,5.9-1,8.8-3c1.5-1.1,2.9-2.7,4.2-4.6
		c1.3-2,2-4,2.2-5.9c0.5-6.1,0.9-11.3,1.2-15.7s0.4-8.6,0.4-12.8c0-11.1-1.1-20.5-3.3-28c-0.5-1.9-1.9-3.7-4.3-5.4
		C690.3,42.1,687.8,41.3,685.1,41.3z"/>
	<path class="st1" d="M714.4,38.7h32.7v1.5h-11.3v79.1c5.8-0.1,10.6-0.4,14.2-0.9c3.7-0.5,7-1.5,9.9-3s5.2-3.9,6.7-7
		c2.6-5.3,4.7-13.6,6.1-24.7h0.9v37l-60.5,0.1v-1.4h12.5v-2.1V40.2h-11.1L714.4,38.7z"/>
	<path class="st1" d="M781.8,38.7h32.7v1.5h-11.3v79.1c5.8-0.1,10.6-0.4,14.2-0.9c3.7-0.5,7-1.5,9.9-3s5.2-3.9,6.7-7
		c2.6-5.3,4.7-13.6,6.1-24.7h0.9v37l-60.5,0.1v-1.4H793v-2.1V40.2h-11.1L781.8,38.7z"/>
	<path class="st1" d="M848,39h58.9v27.4h-1c-0.4-4.2-0.8-7.2-1-9c-0.3-1.8-0.8-3.9-1.6-6.2s-1.9-4.3-3.5-6c-1.5-1.7-3.5-2.9-6-3.5
		c-3.4-0.8-7.3-1.2-11.8-1.2c-0.7,0-2.1,0-4.2,0.1c-2.2,0-4.2,0.1-6.1,0.1l-1.7,0.4v34.5c1.6,0,3.6,0,5.8,0c2.3,0,4,0.1,5.2,0.1
		c2.2,0,3.9-1,4.9-2.9c1.1-1.9,1.8-4.2,2.3-6.8c0.4-2.6,0.9-5.1,1.3-7.6l0.6,0.1v36.9h-0.7c-0.3-2.2-0.6-4.2-0.8-6s-0.6-3.5-1.1-5.2
		s-1.2-3-2.3-4.1c-1-1.1-2.4-1.6-4.1-1.6h-11v40.8c1.2,0,2.9,0,5.3,0.1c2.4,0.1,4.1,0.1,5.4,0.1c4,0,7.5-0.4,10.5-1.3
		c3.1-0.8,5.8-2.5,8.2-4.8c1.6-1.6,2.9-3.3,3.9-5.2c1-1.9,1.7-3.8,2.2-5.6c0.5-1.8,0.8-3.9,1.1-6.3s0.6-4.6,0.9-6.7h0.7V121
		l-60.9,0.1v-1.6h11.5l1.1-1.4V40.8c-1.4-0.2-3.3-0.4-5.9-0.5c-2.6-0.1-4.6-0.1-6.1-0.1L848,39L848,39z"/>
	<path class="st1" d="M939.8,38.6c1.3-0.2,2.3-0.2,3-0.2c5.4,0,10.8,3.1,16.1,9.4l7.2-8.4l0.9,0.4v29h-0.9c-3.9-13.7-10-23-18.3-28
		c-1.3-0.7-3-1.1-5.3-1.1c-3.3,0-5.7,0.8-7.3,2.4c-4,4.2-6.8,8.9-8.3,14.1c-1.6,5.2-2.3,11.2-2.3,17.9c0,2.9,0.2,7.1,0.6,12.4
		c0.4,5.4,0.6,8.6,0.7,9.7c0.4,6.4,1.5,11.6,3.2,15.7s4.8,7.1,9.2,9.1c1.7,0.6,3.3,0.9,5,0.9c2.7,0,5.1-0.6,7.1-1.9
		c3-2.3,5.6-5.2,7.6-8.4c2-3.3,3.6-6.7,4.8-10.2s2.4-7.6,3.5-12.4h0.8v33.5c-1-0.4-1.8-1-2.4-1.7c-0.6-0.7-1.3-1.8-2.2-3.3
		s-1.8-2.5-2.6-3.3l-0.7-0.5c-5,6.3-10.1,9.4-15.3,9.4c-4.8,0-9.2-1.4-13.1-4.3c-4-2.9-7.1-6.5-9.4-11c-4.8-9.4-7.2-19-7.2-28.8
		c0-8.8,2-16.6,6-23.6c1.8-3.2,3.5-5.8,5.2-8c1.6-2.1,3.7-4,6.1-5.6C933.6,40.3,936.5,39.2,939.8,38.6z"/>
	<path class="st1" d="M1032.8,38.7v33.2c-0.1,0-0.2,0.1-0.3,0.3s-0.2,0.3-0.3,0.3c-0.1,0-0.3-0.2-0.4-0.6
		c-0.8-6.2-1.7-11.2-2.6-14.9s-2.2-6.9-4-9.7c-1.8-2.8-4.3-4.9-7.6-6.3c-1.3-0.6-2.9-0.8-4.7-0.8c-0.3,0-1,0-2.1,0.1
		c-1.1,0-2.2,0.1-3.1,0.1l0.3,79h12.6v1.4h-35.2v-1.4h12l-0.2-79c-0.5,0-1.3,0-2.3-0.1c-1,0-1.8-0.1-2.3-0.1c-1.8,0-3.2,0.2-4.2,0.7
		c-2.9,1.5-5.3,3.3-7.2,5.6c-1.8,2.3-3.2,4.8-4.2,7.5c-0.9,2.7-1.6,5.1-1.9,7.1c-0.3,2-0.8,5.8-1.5,11.4h-0.7V38.7H1032.8z"/>
	<path class="st1" d="M1038.1,38.8h33.8v1.4h-11.7v79.1h11.7v1.5h-33.8v-1.5h11.3V40.2h-11.3V38.8z"/>
	<path class="st1" d="M1096.9,39.7c3.9,0,7.5,1.2,10.7,3.5c3.3,2.4,6.1,5.3,8.4,8.7c2.5,3.8,4.5,8.3,5.8,13.6s2,10.8,2,16.5
		c0,10.4-2,18.8-5.9,25.4c-1.9,3.1-4.7,6.2-8.6,9.1s-8.4,4.3-13.4,4.3s-8.9-0.8-11.5-2.5s-5.4-4.7-8.5-9c-1.9-2.9-3.5-5.9-4.8-9.2
		c-1.3-3.2-2.3-6.6-2.9-10.2s-1-7.1-1-10.7c0-10.4,2.5-19.3,7.4-26.8C1080.1,44.2,1087.6,39.9,1096.9,39.7z M1097.1,41.3
		c-4,0.1-7.2,1-9.5,2.7c-2.3,1.8-3.8,3.5-4.5,5.3c-1.3,3.7-2.3,8.7-3.1,15c-0.8,6.3-1.2,12.6-1.2,19.1c0,9.8,0.8,17.6,2.4,23.6
		c0.7,2.6,1.6,4.6,2.5,5.7c0.9,1.2,2.2,2.4,3.8,3.7c2.4,1.8,5.1,2.7,7.9,2.7c3,0,5.9-1,8.8-3c1.5-1.1,2.9-2.7,4.2-4.6
		c1.3-2,2-4,2.2-5.9c0.5-6.1,0.9-11.3,1.2-15.7c0.3-4.4,0.4-8.6,0.4-12.8c0-11.1-1.1-20.5-3.3-28c-0.5-1.9-1.9-3.7-4.3-5.4
		C1102.3,42.1,1099.7,41.3,1097.1,41.3z"/>
	<path class="st1" d="M1121.2,38.8h20.6l33.2,60.8v-51c0-5.6-4-8.4-11.9-8.4v-1.4h26.3v1.4c-8.4,0-12.5,2.4-12.5,7.2v73.3h-1.5
		L1135.6,48v61c0,4.5,2.8,7.6,8.3,9.4c0.9,0.3,1.9,0.5,2.9,0.5c1.1,0.1,1.9,0.1,2.5,0.1v1.7l-28.6-0.1V119c3.1,0,5.1-0.1,6.1-0.2
		c2-0.3,3.6-1.7,4.6-4.1c1-2.5,1.7-5.4,2-8.9s0.5-7.5,0.5-12V44.9c0-3.1-4.2-4.7-12.7-4.7L1121.2,38.8L1121.2,38.8z"/>
</g>
</svg>
